<svg width="64" height="64" viewBox="0 0 64 64" fill="none" xmlns="http://www.w3.org/2000/svg">
<g id="printer">
<path id="Rectangle 585" d="M14 24C14 19.0294 18.0294 15 23 15H43C47.9706 15 52 19.0294 52 24V59C52 60.6569 50.6569 62 49 62H17C15.3431 62 14 60.6569 14 59V24Z" fill="url(#paint0_linear_5337_2549)"/>
<path id="Rectangle 542" d="M36.375 33.625V28H32.4375H29.625V33.625H24V36.4375V40.375H29.625V46H32.4375H36.375V40.375H42V36.4375V33.625H36.375Z" fill="url(#paint1_linear_5337_2549)"/>
<path id="Rectangle 586" d="M21 4C21 2.89543 21.8954 2 23 2H43C44.1046 2 45 2.89543 45 4V15H21V4Z" fill="url(#paint2_linear_5337_2549)"/>
</g>
<defs>
<linearGradient id="paint0_linear_5337_2549" x1="51.999" y1="2.46758" x2="20.2395" y2="10.1753" gradientUnits="userSpaceOnUse">
<stop stop-color="#122B41"/>
<stop offset="1" stop-color="#214F86"/>
</linearGradient>
<linearGradient id="paint1_linear_5337_2549" x1="33.1698" y1="30.4" x2="35.4114" y2="41.3221" gradientUnits="userSpaceOnUse">
<stop stop-color="#CC4F46"/>
<stop offset="0.975" stop-color="#F6827A"/>
</linearGradient>
<linearGradient id="paint2_linear_5337_2549" x1="50.6" y1="9.83333" x2="39.2826" y2="-8.15722" gradientUnits="userSpaceOnUse">
<stop stop-color="#F2F8FC"/>
<stop offset="1" stop-color="#A4CFED"/>
</linearGradient>
</defs>
</svg>
