<svg width="45" height="44" viewBox="0 0 45 44" fill="none" xmlns="http://www.w3.org/2000/svg">
<path d="M38.6001 21H41.6001V18" stroke="#193B60" stroke-width="1.5"/>
<path d="M38.6001 5H41.6001V8" stroke="#CC4F46" stroke-width="2"/>
<path d="M3.6001 21V39H10.6001V21H3.6001Z" fill="url(#paint0_linear_5295_7257)"/>
<path d="M12.6001 9V39H19.6001V9H12.6001Z" fill="url(#paint1_linear_5295_7257)"/>
<path d="M21.6001 20V39H28.6001V20H21.6001Z" fill="url(#paint2_linear_5295_7257)"/>
<path d="M30.6001 16V39H37.6001V16H30.6001Z" fill="url(#paint3_linear_5295_7257)"/>
<path d="M5.00049 24L14.4705 34L20.8767 27.2353L25.9599 32H41.0005" stroke="url(#paint4_linear_5295_7257)" stroke-width="1.5"/>
<path d="M39.7214 34.2424L41.8427 32.1211L39.7214 29.9998" stroke="#193B60" stroke-width="1.5"/>
<path d="M3.6001 5.53333H11.3665L16.0818 10.0667L21.3519 5H25.2351L41.6001 21" stroke="url(#paint5_linear_5295_7257)" stroke-width="1.5"/>
<path d="M41.6001 5L28.2636 18.8653C28.0751 19.0613 27.8148 19.172 27.5429 19.172H17.2449C16.9856 19.172 16.7365 19.2727 16.55 19.4529L4.6001 31" stroke="url(#paint6_linear_5295_7257)" stroke-width="2"/>
<defs>
<linearGradient id="paint0_linear_5295_7257" x1="10.6345" y1="21.3204" x2="-1.8838" y2="29.9352" gradientUnits="userSpaceOnUse">
<stop stop-color="white"/>
<stop offset="1" stop-color="#A4CFED"/>
</linearGradient>
<linearGradient id="paint1_linear_5295_7257" x1="19.6345" y1="9.53405" x2="3.87462" y2="16.0414" gradientUnits="userSpaceOnUse">
<stop stop-color="white"/>
<stop offset="1" stop-color="#A4CFED"/>
</linearGradient>
<linearGradient id="paint2_linear_5295_7257" x1="28.6345" y1="20.3382" x2="15.6898" y2="28.7776" gradientUnits="userSpaceOnUse">
<stop stop-color="white"/>
<stop offset="1" stop-color="#A4CFED"/>
</linearGradient>
<linearGradient id="paint3_linear_5295_7257" x1="37.6345" y1="16.4094" x2="23.3353" y2="24.1106" gradientUnits="userSpaceOnUse">
<stop stop-color="white"/>
<stop offset="1" stop-color="#A4CFED"/>
</linearGradient>
<linearGradient id="paint4_linear_5295_7257" x1="40.9309" y1="31" x2="20.2949" y2="45.1383" gradientUnits="userSpaceOnUse">
<stop offset="0.315572" stop-color="#193B60"/>
<stop offset="1" stop-color="#214F86" stop-opacity="0"/>
</linearGradient>
<linearGradient id="paint5_linear_5295_7257" x1="38.5005" y1="13" x2="17.7195" y2="23.6041" gradientUnits="userSpaceOnUse">
<stop offset="0.385" stop-color="#193B60"/>
<stop offset="1" stop-color="#214F86" stop-opacity="0"/>
</linearGradient>
<linearGradient id="paint6_linear_5295_7257" x1="22.751" y1="8.46667" x2="18.5406" y2="28.656" gradientUnits="userSpaceOnUse">
<stop stop-color="#CC4F46"/>
<stop offset="0.975" stop-color="#F6827A" stop-opacity="0.06"/>
</linearGradient>
</defs>
</svg>
