<svg width="45" height="44" viewBox="0 0 45 44" fill="none" xmlns="http://www.w3.org/2000/svg">
<g clip-path="url(#clip0_5295_7062)">
<path d="M2.99993 24.4111L41.1456 5.7259L41.1556 21.2727L18.5566 43.8717L3.0003 28.3153L2.99993 24.4111Z" fill="url(#paint0_linear_5295_7062)"/>
<path d="M25.6272 1.77803L41.1833 1.77783L41.1836 17.3344L18.5562 39.9618L2.99983 24.4054L25.6272 1.77803Z" fill="url(#paint1_linear_5295_7062)"/>
<path d="M19.2452 30.2195L21.3807 14.8105" stroke="url(#paint2_linear_5295_7062)" stroke-width="2"/>
<circle cx="36" cy="7" r="2" fill="url(#paint3_linear_5295_7062)"/>
<circle cx="26" cy="23" r="3" fill="url(#paint4_linear_5295_7062)"/>
<circle cx="15" cy="22" r="3" fill="url(#paint5_linear_5295_7062)"/>
</g>
<defs>
<linearGradient id="paint0_linear_5295_7062" x1="50.6101" y1="11.8173" x2="32.6708" y2="0.0478316" gradientUnits="userSpaceOnUse">
<stop stop-color="#122B41"/>
<stop offset="1" stop-color="#214F86"/>
</linearGradient>
<linearGradient id="paint1_linear_5295_7062" x1="19.1739" y1="39.497" x2="17.0422" y2="-3.42794" gradientUnits="userSpaceOnUse">
<stop stop-color="white"/>
<stop offset="1" stop-color="#A4CFED"/>
</linearGradient>
<linearGradient id="paint2_linear_5295_7062" x1="16.9945" y1="18.1289" x2="20.0659" y2="24.7348" gradientUnits="userSpaceOnUse">
<stop stop-color="#CC4F46"/>
<stop offset="0.975" stop-color="#F6827A"/>
</linearGradient>
<linearGradient id="paint3_linear_5295_7062" x1="38" y1="4.77778" x2="34.5782" y2="6.16501" gradientUnits="userSpaceOnUse">
<stop stop-color="#122B41"/>
<stop offset="1" stop-color="#214F86"/>
</linearGradient>
<linearGradient id="paint4_linear_5295_7062" x1="26" y1="20" x2="25.162" y2="23.8843" gradientUnits="userSpaceOnUse">
<stop stop-color="#CC4F46"/>
<stop offset="0.975" stop-color="#F6827A"/>
</linearGradient>
<linearGradient id="paint5_linear_5295_7062" x1="15" y1="19" x2="14.162" y2="22.8843" gradientUnits="userSpaceOnUse">
<stop stop-color="#CC4F46"/>
<stop offset="0.975" stop-color="#F6827A"/>
</linearGradient>
<clipPath id="clip0_5295_7062">
<rect width="44" height="44" fill="white" transform="translate(0.799805)"/>
</clipPath>
</defs>
</svg>
