<svg width="44" height="44" viewBox="0 0 44 44" fill="none" xmlns="http://www.w3.org/2000/svg">
<g clip-path="url(#clip0_5295_7058)">
<path d="M12.913 32.1523C8.1949 27.4342 8.1949 19.7846 12.913 15.0665L21.2831 6.69643C26.0012 1.97832 33.6507 1.97832 38.3689 6.69643C43.087 11.4145 43.087 19.0641 38.3689 23.7822L29.9988 32.1523C25.2807 36.8704 17.6311 36.8704 12.913 32.1523Z" fill="url(#paint0_linear_5295_7058)"/>
<path d="M21.4561 40.6953L4.61996 23.8592C-0.140599 19.0987 -0.140595 11.3803 4.61996 6.61972C9.38051 1.85916 17.0989 1.85916 21.8595 6.61971L38.6956 23.4558L21.4561 40.6953Z" fill="url(#paint1_linear_5295_7058)"/>
<path d="M8 22H12.4684C12.8449 22 13.1894 21.7886 13.3599 21.453L14.7735 18.6715C15.1359 17.9583 16.1475 17.9383 16.5378 18.6366L20.1152 25.0359C20.538 25.7923 21.6571 25.6895 21.9351 24.8688L24.5438 17.169C24.8239 16.3425 25.9542 16.2461 26.3701 17.0134L29.0605 21.9766C29.2354 22.2991 29.5728 22.5 29.9397 22.5H39" stroke="url(#paint2_linear_5295_7058)" stroke-width="2"/>
</g>
<defs>
<linearGradient id="paint0_linear_5295_7058" x1="17.098" y1="10.8815" x2="26.7943" y2="23.8613" gradientUnits="userSpaceOnUse">
<stop stop-color="#CC4F46"/>
<stop offset="0.975" stop-color="#F6827A"/>
</linearGradient>
<linearGradient id="paint1_linear_5295_7058" x1="-4.95754" y1="16.1972" x2="24.883" y2="23.6895" gradientUnits="userSpaceOnUse">
<stop stop-color="#122B41"/>
<stop offset="1" stop-color="#214F86"/>
</linearGradient>
<linearGradient id="paint2_linear_5295_7058" x1="23.5" y1="15" x2="22.8257" y2="23.0738" gradientUnits="userSpaceOnUse">
<stop stop-color="#CC4F46"/>
<stop offset="0.975" stop-color="#F6827A"/>
</linearGradient>
<clipPath id="clip0_5295_7058">
<rect width="44" height="44" fill="white"/>
</clipPath>
</defs>
</svg>
