<svg width="64" height="64" viewBox="0 0 64 64" fill="none" xmlns="http://www.w3.org/2000/svg">
<g id="heart">
<path id="stroke" d="M22.2 10C26.3562 10 30.1326 11.5694 33 14.1294C36.1418 11.3088 41.5091 10.2012 43.8 10C52.7478 10 60 17.2198 60 26.1236C60 33.0005 53.3622 49.4629 50.3401 56.6017C49.4601 58.6805 47.4186 60 45.1613 60C42.6114 60 40.3698 58.3114 39.6662 55.8605L37.9776 49.9784C37.3558 47.812 35.3744 46.3194 33.1205 46.3194C30.9077 46.3194 28.9523 47.7591 28.2952 49.8721L26.4108 55.9312C25.6582 58.3512 23.4187 60 20.8845 60C18.5993 60 16.5329 58.6649 15.6424 56.5604C12.6122 49.3996 6 32.9872 6 26.1236C6 17.2198 13.2522 10 22.2 10Z" fill="url(#paint0_linear_5337_2522)"/>
<path id="stroke_2" d="M18.2 6C22.3562 6 26.1326 7.56936 29 10.1294C32.1418 7.30876 37.5091 6.2012 39.8 6C48.7478 6 56 13.2198 56 22.1236C56 29.0005 49.3622 45.4629 46.3401 52.6017C45.4601 54.6805 43.4186 56 41.1613 56C38.6114 56 36.3698 54.3114 35.6662 51.8605L33.9776 45.9784C33.3558 43.812 31.3744 42.3194 29.1205 42.3194C26.9077 42.3194 24.9523 43.7591 24.2952 45.8721L22.4108 51.9312C21.6582 54.3512 19.4187 56 16.8845 56C14.5993 56 12.5329 54.6649 11.6424 52.5604C8.61224 45.3996 2 28.9872 2 22.1236C2 13.2198 9.2522 6 18.2 6Z" fill="url(#paint1_linear_5337_2522)"/>
<path id="Vector 1" d="M29 21.3333L35.0197 27.2788C35.4199 27.674 36.0673 27.6616 36.452 27.2512L47 16" stroke="url(#paint2_linear_5337_2522)" stroke-width="2"/>
</g>
<defs>
<linearGradient id="paint0_linear_5337_2522" x1="59.9986" y1="-3.33236" x2="16.7533" y2="10.6871" gradientUnits="userSpaceOnUse">
<stop stop-color="#122B41"/>
<stop offset="1" stop-color="#214F86"/>
</linearGradient>
<linearGradient id="paint1_linear_5337_2522" x1="68.6" y1="36.1282" x2="20.4385" y2="-8.65883" gradientUnits="userSpaceOnUse">
<stop stop-color="#F2F8FC"/>
<stop offset="1" stop-color="#A4CFED"/>
</linearGradient>
<linearGradient id="paint2_linear_5337_2522" x1="38" y1="16" x2="36.8544" y2="23.9653" gradientUnits="userSpaceOnUse">
<stop stop-color="#CC4F46"/>
<stop offset="0.975" stop-color="#F6827A"/>
</linearGradient>
</defs>
</svg>
