<svg width="45" height="44" viewBox="0 0 45 44" fill="none" xmlns="http://www.w3.org/2000/svg">
<g clip-path="url(#clip0_5295_7050)">
<path fill-rule="evenodd" clip-rule="evenodd" d="M37.1 17.7998H9.5V33.3998C9.5 35.388 15.6785 36.9998 23.3 36.9998C30.9215 36.9998 37.1 35.388 37.1 33.3998V17.7998Z" fill="url(#paint0_linear_5295_7050)"/>
<path fill-rule="evenodd" clip-rule="evenodd" d="M37.1 19H9.5V24.6C9.5 26.5882 15.6785 28.2 23.3 28.2C30.9215 28.2 37.1 26.5882 37.1 24.6V19Z" fill="url(#paint1_linear_5295_7050)"/>
<path d="M23 19L6 19C5.44772 19 5 19.4477 5 20V28" stroke="url(#paint2_linear_5295_7050)" stroke-width="2"/>
<path d="M2 28C2 29.9377 3.30366 32.0057 4.33219 33.2568C4.68292 33.6834 5.31847 33.6857 5.67688 33.2655C6.66618 32.1057 8 30.1392 8 28.0001C8 25.75 6 24.9999 5 25C4 25 2 25.6 2 28Z" fill="url(#paint3_linear_5295_7050)"/>
<path d="M22.7998 7L0.799805 17L22.7998 27L44.7998 17L22.7998 7Z" fill="url(#paint4_linear_5295_7050)"/>
</g>
<defs>
<linearGradient id="paint0_linear_5295_7050" x1="37.1" y1="29.3998" x2="29.0501" y2="41.9098" gradientUnits="userSpaceOnUse">
<stop stop-color="#122B41"/>
<stop offset="1" stop-color="#214F86"/>
</linearGradient>
<linearGradient id="paint1_linear_5295_7050" x1="37.2357" y1="28.0362" x2="34.7434" y2="14.8052" gradientUnits="userSpaceOnUse">
<stop stop-color="white"/>
<stop offset="1" stop-color="#A4CFED"/>
</linearGradient>
<linearGradient id="paint2_linear_5295_7050" x1="13.8302" y1="20.2" x2="13.2523" y2="25.8318" gradientUnits="userSpaceOnUse">
<stop stop-color="#CC4F46"/>
<stop offset="0.975" stop-color="#F6827A"/>
</linearGradient>
<linearGradient id="paint3_linear_5295_7050" x1="5" y1="25" x2="3.2138" y2="30.5195" gradientUnits="userSpaceOnUse">
<stop stop-color="#CC4F46"/>
<stop offset="0.975" stop-color="#F6827A"/>
</linearGradient>
<linearGradient id="paint4_linear_5295_7050" x1="44.7998" y1="5.88889" x2="20.3903" y2="27.6595" gradientUnits="userSpaceOnUse">
<stop stop-color="#122B41"/>
<stop offset="1" stop-color="#214F86"/>
</linearGradient>
<clipPath id="clip0_5295_7050">
<rect width="44" height="44" fill="white" transform="translate(0.799805)"/>
</clipPath>
</defs>
</svg>
