<svg width="64" height="64" viewBox="0 0 64 64" fill="none" xmlns="http://www.w3.org/2000/svg">
<g id="video-player">
<rect id="Rectangle 540" x="5" y="3" width="54" height="44" fill="url(#paint0_linear_5337_2514)"/>
<path id="Union" fill-rule="evenodd" clip-rule="evenodd" d="M56.2069 34H59V59H56.2069C56.2069 55.6863 53.5206 53 50.2069 53H14C10.6863 53 8 55.6863 8 59H5V47C5 44.2386 7.23858 42 10 42H52.2069C54.416 42 56.2069 40.2091 56.2069 38V34Z" fill="url(#paint1_linear_5337_2514)"/>
<rect id="Rectangle 544" x="37" y="33" width="18" height="8" rx="4" fill="url(#paint2_linear_5337_2514)"/>
<path id="Vector 15" d="M23.2731 10.1816H17.4549V15.9998H11.6367V21.818H17.4549V27.6362H23.2731V21.818H29.0913V15.9998H23.2731V10.1816Z" fill="url(#paint3_linear_5337_2514)"/>
</g>
<defs>
<linearGradient id="paint0_linear_5337_2514" x1="63.1896" y1="44.5939" x2="64.1524" y2="5.99002" gradientUnits="userSpaceOnUse">
<stop stop-color="#F2F8FC"/>
<stop offset="1" stop-color="#A4CFED"/>
</linearGradient>
<linearGradient id="paint1_linear_5337_2514" x1="56.2056" y1="41.7677" x2="45.3076" y2="60.4271" gradientUnits="userSpaceOnUse">
<stop stop-color="#122B41"/>
<stop offset="1" stop-color="#214F86"/>
</linearGradient>
<linearGradient id="paint2_linear_5337_2514" x1="54.9995" y1="32.5557" x2="45.3848" y2="40.348" gradientUnits="userSpaceOnUse">
<stop stop-color="#122B41"/>
<stop offset="1" stop-color="#214F86"/>
</linearGradient>
<linearGradient id="paint3_linear_5337_2514" x1="20.1993" y1="12.5089" x2="18.0257" y2="23.1001" gradientUnits="userSpaceOnUse">
<stop stop-color="#CC4F46"/>
<stop offset="0.975" stop-color="#F6827A"/>
</linearGradient>
</defs>
</svg>
