<svg width="45" height="44" viewBox="0 0 45 44" fill="none" xmlns="http://www.w3.org/2000/svg">
<circle cx="23.6001" cy="24" r="18" fill="#69B6DB"/>
<path d="M5.7597 21.5904C5.6541 22.3788 5.6001 23.1828 5.6001 24C5.6001 33.9408 13.6593 42 23.6001 42C33.5409 42 41.6001 33.9408 41.6001 24C41.6001 14.0592 33.5409 6 23.6001 6" stroke="#123B6C" stroke-width="2" stroke-linecap="round" stroke-linejoin="round"/>
<path d="M19.6001 6H4.6001" stroke="#123B6C" stroke-width="2" stroke-linecap="round" stroke-linejoin="round"/>
<path d="M7.6001 10L4.3072 6.70711C3.91668 6.31658 3.91668 5.68342 4.3072 5.29289L7.6001 2" stroke="#123B6C" stroke-width="2" stroke-linecap="round" stroke-linejoin="round"/>
<path d="M19.6001 33V15.25C19.6001 15.1119 19.712 15 19.8501 15H25.6001C28.3615 15 30.6001 17.2386 30.6001 20V20C30.6001 22.7614 28.3615 25 25.6001 25H22.6001M16.6001 29H27.6001" stroke="#123B6C" stroke-width="2" stroke-linecap="round" stroke-linejoin="round"/>
</svg>
