<svg width="64" height="64" viewBox="0 0 64 64" fill="none" xmlns="http://www.w3.org/2000/svg">
<g id="imac">
<g id="fill">
<path id="Vector" d="M62 4V38H2V4C2 2.9 2.9 2 4 2H60C61.1 2 62 2.9 62 4Z" fill="url(#paint0_linear_5337_2539)"/>
<path id="Vector_2" d="M26 62H38L36 46H28L26 62Z" fill="url(#paint1_linear_5337_2539)"/>
<path id="Vector_3" d="M16 62H48V60H16V62Z" fill="url(#paint2_linear_5337_2539)"/>
<path id="Vector_4" d="M62 38V48C62 49.1 61.1 50 60 50H36H28H4C2.9 50 2 49.1 2 48V38H62Z" fill="url(#paint3_linear_5337_2539)"/>
</g>
<path id="Rectangle 542" d="M35 15V10H31.5H29V15H24V17.5V21H29V26H31.5H35V21H40V17.5V15H35Z" fill="url(#paint4_linear_5337_2539)"/>
</g>
<defs>
<linearGradient id="paint0_linear_5337_2539" x1="61.9984" y1="-7.5993" x2="19.5279" y2="13.648" gradientUnits="userSpaceOnUse">
<stop stop-color="#122B41"/>
<stop offset="1" stop-color="#214F86"/>
</linearGradient>
<linearGradient id="paint1_linear_5337_2539" x1="35.9998" y1="41.7336" x2="29.0757" y2="42.7728" gradientUnits="userSpaceOnUse">
<stop stop-color="#122B41"/>
<stop offset="1" stop-color="#214F86"/>
</linearGradient>
<linearGradient id="paint2_linear_5337_2539" x1="47.9992" y1="59.4667" x2="46.8224" y2="65.1184" gradientUnits="userSpaceOnUse">
<stop stop-color="#122B41"/>
<stop offset="1" stop-color="#214F86"/>
</linearGradient>
<linearGradient id="paint3_linear_5337_2539" x1="76" y1="45.2308" x2="70.8918" y2="23.2387" gradientUnits="userSpaceOnUse">
<stop stop-color="#F2F8FC"/>
<stop offset="1" stop-color="#A4CFED"/>
</linearGradient>
<linearGradient id="paint4_linear_5337_2539" x1="32.1509" y1="12.1333" x2="34.1434" y2="21.8419" gradientUnits="userSpaceOnUse">
<stop stop-color="#CC4F46"/>
<stop offset="0.975" stop-color="#F6827A"/>
</linearGradient>
</defs>
</svg>
