<svg width="64" height="64" viewBox="0 0 64 64" fill="none" xmlns="http://www.w3.org/2000/svg">
<g id="time-watch-2">
<g id="fill">
<path id="Vector" d="M61.9996 14L53.9996 22L53.0596 22.32C51.2996 16.94 47.0596 12.7 41.6796 10.94L41.9996 10L49.9996 2L61.9996 14ZM30.32 45.08L30 46L14 62H2V50L18 34L18.94 33.7C20.698 39.06 24.96 43.3 30.32 45.08Z" fill="url(#paint0_linear_5337_2529)"/>
<path id="Vector_2" d="M53.061 22.3205C53.681 24.1005 54.001 26.0205 54.001 28.0005C54.001 37.9605 45.939 46.0005 36.001 46.0005C34.019 46.0005 32.101 45.6805 30.321 45.0805C24.961 43.3005 20.699 39.0605 18.939 33.6985C18.321 31.9205 18.001 30.0005 18.001 28.0005C18.001 18.0605 26.061 10.0005 36.001 10.0005C37.981 10.0005 39.901 10.3205 41.681 10.9405C47.061 12.6985 51.301 16.9405 53.061 22.3205Z" fill="url(#paint1_linear_5337_2529)"/>
</g>
<path id="Rectangle 542" d="M6 6.5V1H9.5H12.5V7H18V9.5V13H12.5V18H9.5H6V13H1V9.5V6.5H6Z" fill="url(#paint2_linear_5337_2529)"/>
<path id="Vector 1" d="M35.75 17.5V27.1865C35.75 27.7082 35.9538 28.2092 36.318 28.5827L45.5 38" stroke="url(#paint3_linear_5337_2529)" stroke-width="2"/>
</g>
<defs>
<linearGradient id="paint0_linear_5337_2529" x1="61.998" y1="-13.9988" x2="13.2871" y2="0.622626" gradientUnits="userSpaceOnUse">
<stop stop-color="#122B41"/>
<stop offset="1" stop-color="#214F86"/>
</linearGradient>
<linearGradient id="paint1_linear_5337_2529" x1="62.401" y1="31.6928" x2="28.0186" y2="2.08787" gradientUnits="userSpaceOnUse">
<stop stop-color="#F2F8FC"/>
<stop offset="1" stop-color="#A4CFED"/>
</linearGradient>
<linearGradient id="paint2_linear_5337_2529" x1="9.33962" y1="3.26667" x2="7.22259" y2="13.582" gradientUnits="userSpaceOnUse">
<stop stop-color="#CC4F46"/>
<stop offset="0.975" stop-color="#F6827A"/>
</linearGradient>
<linearGradient id="paint3_linear_5337_2529" x1="40.8174" y1="26.5762" x2="35.565" y2="27.2598" gradientUnits="userSpaceOnUse">
<stop stop-color="#122B41"/>
<stop offset="1" stop-color="#214F86"/>
</linearGradient>
</defs>
</svg>
