<svg width="44" height="44" viewBox="0 0 44 44" fill="none" xmlns="http://www.w3.org/2000/svg">
<g id="diamond">
<g id="Group 894">
<path id="Rectangle 564" d="M5 42L5 3.00036L22 3.00036L32 13L32 42L5 42Z" fill="url(#paint0_linear_5449_3388)"/>
<path id="Vector 102" d="M19 17L11 17" stroke="url(#paint1_linear_5449_3388)" stroke-width="2"/>
<path id="Vector 103" d="M27 22L11 22" stroke="url(#paint2_linear_5449_3388)" stroke-width="2"/>
<path id="Vector 104" d="M19 27H11" stroke="url(#paint3_linear_5449_3388)" stroke-width="2"/>
<path id="Rectangle 565" d="M21.9844 3L31.9492 12.9648L21.9844 12.9648V3Z" fill="url(#paint4_linear_5449_3388)"/>
<g id="Group 882">
<path id="Union" fill-rule="evenodd" clip-rule="evenodd" d="M32.0787 39.5877C35.4359 39.5877 38.1574 38.6272 38.1574 37.4423V35.2969H32.0787H26V37.4423C26 38.6272 28.7215 39.5877 32.0787 39.5877Z" fill="url(#paint5_linear_5449_3388)"/>
<ellipse id="Ellipse 24" cx="32.0787" cy="35.2973" rx="6.07872" ry="2.14543" fill="url(#paint6_linear_5449_3388)"/>
<path id="Union_2" fill-rule="evenodd" clip-rule="evenodd" d="M32.0787 36.0125C35.4359 36.0125 38.1574 35.052 38.1574 33.8671V31.7217H32.0787H26V33.8671C26 35.052 28.7215 36.0125 32.0787 36.0125Z" fill="url(#paint7_linear_5449_3388)"/>
<ellipse id="Ellipse 23" cx="32.0787" cy="31.7211" rx="6.07872" ry="2.14543" fill="url(#paint8_linear_5449_3388)"/>
<path id="Union_3" fill-rule="evenodd" clip-rule="evenodd" d="M32.0787 32.4364C35.4359 32.4364 38.1574 31.4758 38.1574 30.2909V28.1455H32.0787H26V30.2909C26 31.4758 28.7215 32.4364 32.0787 32.4364Z" fill="url(#paint9_linear_5449_3388)"/>
<ellipse id="Ellipse 22" cx="32.0787" cy="28.1454" rx="6.07872" ry="2.14543" fill="url(#paint10_linear_5449_3388)"/>
</g>
</g>
</g>
<defs>
<linearGradient id="paint0_linear_5449_3388" x1="32.0194" y1="3.31318" x2="-2.60641" y2="17.2161" gradientUnits="userSpaceOnUse">
<stop stop-color="white"/>
<stop offset="1" stop-color="#A4CFED"/>
</linearGradient>
<linearGradient id="paint1_linear_5449_3388" x1="15.4581" y1="15.5592" x2="15.2912" y2="13.9328" gradientUnits="userSpaceOnUse">
<stop stop-color="#122B41"/>
<stop offset="1" stop-color="#214F86"/>
</linearGradient>
<linearGradient id="paint2_linear_5449_3388" x1="19.9162" y1="20.5592" x2="19.8321" y2="18.92" gradientUnits="userSpaceOnUse">
<stop stop-color="#122B41"/>
<stop offset="1" stop-color="#214F86"/>
</linearGradient>
<linearGradient id="paint3_linear_5449_3388" x1="15.4581" y1="25.5592" x2="15.2912" y2="23.9328" gradientUnits="userSpaceOnUse">
<stop stop-color="#122B41"/>
<stop offset="1" stop-color="#214F86"/>
</linearGradient>
<linearGradient id="paint4_linear_5449_3388" x1="26.9668" y1="7.98242" x2="23.27" y2="10.9593" gradientUnits="userSpaceOnUse">
<stop stop-color="#CC4F46"/>
<stop offset="0.975" stop-color="#F6827A"/>
</linearGradient>
<linearGradient id="paint5_linear_5449_3388" x1="38.1574" y1="33.5487" x2="31.2066" y2="39.5368" gradientUnits="userSpaceOnUse">
<stop stop-color="#122B41"/>
<stop offset="1" stop-color="#214F86"/>
</linearGradient>
<linearGradient id="paint6_linear_5449_3388" x1="35.6544" y1="32.7943" x2="33.6266" y2="38.131" gradientUnits="userSpaceOnUse">
<stop stop-color="#122B41"/>
<stop offset="1" stop-color="#1E66BC"/>
</linearGradient>
<linearGradient id="paint7_linear_5449_3388" x1="38.1574" y1="29.9736" x2="31.2066" y2="35.9616" gradientUnits="userSpaceOnUse">
<stop stop-color="#122B41"/>
<stop offset="1" stop-color="#214F86"/>
</linearGradient>
<linearGradient id="paint8_linear_5449_3388" x1="35.6544" y1="29.2181" x2="33.6266" y2="34.5548" gradientUnits="userSpaceOnUse">
<stop stop-color="#122B41"/>
<stop offset="1" stop-color="#1E66BC"/>
</linearGradient>
<linearGradient id="paint9_linear_5449_3388" x1="35.9472" y1="30.8318" x2="28.9623" y2="37.3065" gradientUnits="userSpaceOnUse">
<stop stop-color="#CC4F46"/>
<stop offset="0.975" stop-color="#F6827A"/>
</linearGradient>
<linearGradient id="paint10_linear_5449_3388" x1="32.0787" y1="26" x2="31.8586" y2="28.8903" gradientUnits="userSpaceOnUse">
<stop stop-color="#CC4F46"/>
<stop offset="0.975" stop-color="#F6827A"/>
</linearGradient>
</defs>
</svg>
