<svg width="44" height="44" viewBox="0 0 44 44" fill="none" xmlns="http://www.w3.org/2000/svg">
<g id="diamond">
<circle id="Ellipse 20" cx="22" cy="22" r="19" fill="url(#paint0_linear_5449_3420)"/>
<path id="Union" fill-rule="evenodd" clip-rule="evenodd" d="M19.2875 18.3031C19.5775 18.4965 19.8278 18.758 19.9902 18.9555V20.8901C19.9902 21.5772 19.0833 23.066 17.2693 24.154C17.1858 24.2041 17.0998 24.2555 17.0118 24.308C15.1901 25.3958 12.5078 26.9975 12.5078 28.9639V32.9019C12.5078 32.9019 14.71 35.9998 21.6672 35.9998C28.6244 35.9998 30.7037 32.9019 30.7037 32.9019V29.9946C30.7037 28.4486 29.6833 26.9025 25.7721 24.154C24.9902 23.5898 24.6134 22.0607 24.4722 20.9927C25.613 20.7154 27.4968 19.2774 27.3443 16.0747C27.2654 14.4182 27.2205 13.174 27.1967 12.3291C27.5345 12.093 27.7491 11.702 27.683 11.1069C27.5116 9.56485 25.7983 8.36549 23.9136 8.53683C22.4058 8.6739 21.572 9.27934 21.3435 9.56492C20.1442 9.45072 17.7112 9.77059 17.5741 11.9636C17.4028 14.7049 17.4028 16.9324 19.2875 18.3031Z" fill="url(#paint1_linear_5449_3420)"/>
<circle id="Ellipse 19" cx="22" cy="22" r="19" stroke="url(#paint2_linear_5449_3420)" stroke-width="2"/>
<circle id="Ellipse 22" cx="34" cy="34" r="7" fill="url(#paint3_linear_5449_3420)"/>
<path id="Vector 41" d="M37.4844 32.2383L34.1378 35.5849C33.7473 35.9754 33.1141 35.9754 32.7236 35.5849L31 33.8613" stroke="url(#paint4_linear_5449_3420)" stroke-width="2"/>
</g>
<defs>
<linearGradient id="paint0_linear_5449_3420" x1="41.1868" y1="37.6091" x2="19.614" y2="-3.56021" gradientUnits="userSpaceOnUse">
<stop stop-color="white"/>
<stop offset="1" stop-color="#A4CFED"/>
</linearGradient>
<linearGradient id="paint1_linear_5449_3420" x1="31.5914" y1="6.84496" x2="13.0362" y2="11.8261" gradientUnits="userSpaceOnUse">
<stop stop-color="#122B41"/>
<stop offset="1" stop-color="#214F86"/>
</linearGradient>
<linearGradient id="paint2_linear_5449_3420" x1="41" y1="3" x2="24.2818" y2="38.5166" gradientUnits="userSpaceOnUse">
<stop stop-color="#122B41"/>
<stop offset="1" stop-color="#3B6BA4"/>
</linearGradient>
<linearGradient id="paint3_linear_5449_3420" x1="34" y1="27" x2="32.0447" y2="36.0633" gradientUnits="userSpaceOnUse">
<stop stop-color="#CC4F46"/>
<stop offset="0.975" stop-color="#F6827A"/>
</linearGradient>
<linearGradient id="paint4_linear_5449_3420" x1="29.2926" y1="28.5645" x2="27.6599" y2="23.766" gradientUnits="userSpaceOnUse">
<stop stop-color="#122B41"/>
<stop offset="1" stop-color="#214F86"/>
</linearGradient>
</defs>
</svg>
